<?xml version="1.0" standalone="no"?>
<!DOCTYPE svg PUBLIC "-//W3C//DTD SVG 20010904//EN"
 "http://www.w3.org/TR/2001/REC-SVG-20010904/DTD/svg10.dtd">
<svg version="1.0" xmlns="http://www.w3.org/2000/svg"
 width="920.000000pt" height="920.000000pt" viewBox="0 0 920.000000 920.000000"
 preserveAspectRatio="xMidYMid meet">

<g transform="translate(0.000000,920.000000) scale(0.100000,-0.100000)"
fill="#566885" stroke="none">
<path d="M2360 8400 c-236 -32 -477 -166 -612 -339 -29 -36 -127 -177 -218
-313 l-165 -246 -275 -5 c-283 -5 -334 -11 -460 -55 -171 -59 -345 -192 -456
-349 -56 -77 -118 -209 -147 -310 l-22 -78 -3 -2958 -2 -2957 3945 0 c2170 0
3945 3 3945 6 0 8 134 529 278 1084 131 503 236 907 297 1145 24 94 75 292
114 440 38 149 91 351 116 450 95 365 136 524 177 680 42 157 43 163 43 325 0
142 -3 176 -23 244 -74 257 -243 469 -473 595 -118 64 -301 111 -430 111 l-59
0 0 384 c0 405 -6 472 -51 603 -99 290 -363 537 -649 607 -138 34 -207 36
-1195 36 l-990 1 -180 271 c-193 291 -272 385 -394 467 -85 58 -207 114 -311
142 l-85 23 -830 2 c-456 1 -855 -2 -885 -6z m1667 -645 c98 -29 118 -53 407
-486 l271 -404 1180 -5 1180 -5 47 -23 c60 -30 119 -86 145 -137 38 -74 43
-133 43 -485 l0 -340 -2702 -3 -2703 -2 -80 -23 c-242 -67 -461 -232 -581
-436 -74 -124 -75 -131 -304 -1016 -62 -239 -127 -491 -145 -560 -18 -69 -57
-219 -86 -335 l-54 -210 -3 1662 c-2 1660 -2 1662 19 1717 24 66 88 134 156
168 48 23 50 23 468 26 l420 3 270 406 c287 432 307 456 405 487 69 22 1573
23 1647 1z m4080 -2553 c96 -51 153 -127 173 -230 14 -69 13 -75 -100 -507
-44 -170 -107 -413 -140 -540 -33 -126 -79 -306 -103 -400 -222 -855 -236
-907 -317 -1220 -38 -148 -90 -349 -115 -445 -25 -96 -60 -232 -77 -302 l-32
-128 -3289 0 c-3127 0 -3288 1 -3283 18 7 20 33 119 91 342 23 91 73 282 110
425 107 412 159 613 225 870 34 132 104 402 155 600 52 198 112 432 135 520
23 88 56 219 75 290 19 72 57 220 85 330 29 110 59 213 67 230 40 78 102 132
182 161 29 11 607 13 3076 11 l3040 -2 42 -23z"/>
<path d="M4641 4579 c-66 -26 -137 -94 -171 -164 -25 -50 -25 -51 -28 -407
l-3 -357 -357 -3 -357 -3 -59 -30 c-116 -58 -182 -173 -173 -300 8 -125 73
-221 186 -274 l56 -26 352 -3 352 -3 3 -357 c3 -347 4 -358 26 -402 37 -75 78
-117 150 -152 154 -76 330 -23 417 127 39 68 45 128 45 465 l0 319 353 3 c345
3 353 3 404 27 62 28 136 103 166 169 30 66 30 179 0 245 -35 75 -76 121 -145
158 l-63 34 -357 3 -357 3 -3 352 -3 352 -26 56 c-55 117 -150 180 -278 186
-60 2 -88 -1 -130 -18z"/>
</g>
</svg>
