<?xml version="1.0" standalone="no"?>
<!DOCTYPE svg PUBLIC "-//W3C//DTD SVG 20010904//EN"
 "http://www.w3.org/TR/2001/REC-SVG-20010904/DTD/svg10.dtd">
<svg version="1.0" xmlns="http://www.w3.org/2000/svg"
 width="512.000000pt" height="512.000000pt" viewBox="0 0 512.000000 512.000000"
 preserveAspectRatio="xMidYMid meet">

<g transform="translate(0.000000,512.000000) scale(0.100000,-0.100000)"
fill="#000000" stroke="none">
<path d="M0 2560 l0 -2560 2560 0 2560 0 0 2560 0 2560 -2560 0 -2560 0 0
-2560z m2285 2230 c19 -38 49 -85 66 -105 65 -74 26 -69 704 -75 l610 -5 3
-77 3 -78 -771 0 -771 0 -24 -25 c-32 -31 -32 -69 0 -100 l24 -25 771 0 770 0
0 -594 0 -594 -26 -31 c-14 -17 -42 -35 -62 -41 -51 -14 -1993 -14 -2044 0
-20 6 -48 24 -62 41 l-26 31 0 594 0 594 200 0 c200 0 201 0 225 25 14 13 25
36 25 50 0 14 -11 37 -25 50 -24 25 -25 25 -225 25 l-200 0 0 205 0 205 400 0
400 0 35 -70z m-1730 -3651 c11 -23 35 -52 54 -65 l36 -24 322 0 323 0 0 -89
c0 -94 16 -132 60 -146 18 -6 20 -15 20 -81 0 -56 -3 -74 -14 -74 -8 0 -24 -9
-37 -19 -23 -19 -24 -25 -29 -198 l-5 -178 -565 0 -565 0 -3 458 -2 457 193 0
194 0 18 -41z m1843 -4 c41 -85 41 -85 410 -85 l322 0 -2 -392 -3 -393 -565 0
-565 0 -3 458 -2 457 193 0 193 0 22 -45z m1834 3 c13 -23 38 -53 57 -65 34
-23 37 -23 357 -23 l324 0 0 -379 c0 -209 -3 -386 -6 -395 -5 -14 -43 -16
-319 -16 -301 0 -313 -1 -339 -21 -14 -11 -26 -29 -26 -40 0 -17 -8 -19 -85
-19 -76 0 -85 2 -85 18 0 11 -9 27 -21 38 -17 16 -42 20 -137 24 l-117 5 -3
458 -2 457 189 0 190 0 23 -42z"/>
</g>
</svg>
