<svg xmlns="http://www.w3.org/2000/svg" xmlns:xlink="http://www.w3.org/1999/xlink" viewBox="0,0,256,256" width="100px" height="100px" fill-rule="nonzero"><g fill="none" fill-rule="nonzero" stroke="none" stroke-width="1" stroke-linecap="butt" stroke-linejoin="miter" stroke-miterlimit="10" stroke-dasharray="" stroke-dashoffset="0" font-family="none" font-weight="none" font-size="none" text-anchor="none" style="mix-blend-mode: normal"><g transform="scale(2.56,2.56)"><path d="M14,84c22,0.2 41,-0.2 63.2,-0.2c3.5,-2.2 5.8,-8.1 5.8,-12.5v-40.9c0,-1.4 -1.1,-2.5 -2.5,-2.5h-27c-1.4,0 -2.5,-1.1 -2.5,-2.5v-2.3c0,-3.4 -2.8,-6.2 -6.3,-6.2h-27.4c-3.4,0 -6.3,2.9 -6.3,6.4v6.5l0.1,48.2c0,5 1.2,6 2.9,6z" fill="#ffcd74"></path><path d="M15.5,32c-0.3,0 -0.5,-0.2 -0.5,-0.5v-5c0,-3.1 2.4,-5.5 5.3,-5.5h18.2c0.3,0 0.5,0.2 0.5,0.5c0,0.3 -0.2,0.5 -0.5,0.5h-18.2c-2.3,0 -4.3,2 -4.3,4.5v5c0,0.2 -0.2,0.5 -0.5,0.5zM46.5,27c-0.3,0 -0.5,-0.2 -0.5,-0.5c0,-2.5 -2,-4.5 -4.3,-4.5c-0.3,0 -0.5,-0.2 -0.5,-0.5c0,-0.3 0.2,-0.5 0.5,-0.5c2.9,0 5.3,2.5 5.3,5.5c0,0.3 -0.2,0.5 -0.5,0.5z" fill="#1f212b"></path><path d="M13.8,84h71.2c1.7,0 3.1,-1.4 3.1,-3.1v-43.9h-72.1v37.8c0,5.1 0.3,9.2 -2.2,9.2z" fill="#ffb96a"></path><path d="M25.5,42.5h24v10h-24z" fill="#8f9eb6"></path><path d="M49.5,53h-24c-0.3,0 -0.5,-0.2 -0.5,-0.5v-10c0,-0.3 0.2,-0.5 0.5,-0.5h24c0.3,0 0.5,0.2 0.5,0.5v10c0,0.3 -0.2,0.5 -0.5,0.5zM26,52h23v-9h-23z" fill="#1f212b"></path><path d="M88,36h-4v-5.6c0,-1.9 -1.6,-3.5 -3.5,-3.5h-27c-0.8,0 -1.5,-0.7 -1.5,-1.5v-2.3c0,-4 -3.3,-7.2 -7.3,-7.2h-27.4c-4,0 -7.3,3.3 -7.3,7.4l0.1,54.7c0,3.5 0.4,6.7 3.5,7h0.1h0.3c0.7,0 1.3,0 2,0v0h68.9c2.3,0 4.1,-1.8 4.1,-4.1v-43.9c0,-0.6 -0.4,-1 -1,-1zM15,37v37.8v1.3c0,2.9 0,6 -0.8,6.8c-0.1,0 -0.2,0.1 -0.4,0.1c-0.7,0 -1.7,-0.5 -1.7,-5l-0.1,-48.2v-6.5c0,-3 2.4,-5.4 5.3,-5.4h27.5c2.9,0 5.3,2.3 5.3,5.2v2.3c0,1.9 1.6,3.5 3.5,3.5h27.1c0.8,0 1.5,0.7 1.5,1.5v5.6h-66.2c-0.6,0 -1,0.4 -1,1zM87,80.9c0,1.1 -0.9,2.1 -2.1,2.1h-68.5c0.6,-1.6 0.6,-4 0.6,-7v-38h70z" fill="#1f212b"></path></g></g></svg>